<svg xmlns="http://www.w3.org/2000/svg" version="1.2" baseProfile="tiny-ps" viewBox="0 0 1242 1242" preserveAspectRatio="xMidYMid meet" xml:space="preserve"><title>Charlid Studios Logo</title>


  
  <g id="Colored_board">
    <rect x="-4.8" width="1248.8" height="1242" fill="blue"/>
  </g>
  <g id="Export_board">
    <path d="M985.5,828.3l-134.4-112.7-54.1-45.4-58.7-49.3-58.7-49.3-17.9-15.1-126.1-105.8c35.3-26.2,78.9-41.7,126.1-41.7s90.8,15.5,126.1,41.7h0c26.6,19.8,48.4,45.6,63.4,75.4l76.9-64.5,51-42.8,76-63.8c-16.8-24.8-36.1-48.2-57.8-69.8h0c-.9-.9-1.9-1.9-2.8-2.8-.9-.9-1.9-1.9-2.8-2.8-89-86.1-205.8-133.5-329.9-133.5s-241,47.3-329.9,133.5c-1,.9-1.9,1.8-2.8,2.8-1,.9-1.9,1.9-2.8,2.8h0c-21.7,21.7-41,45-57.8,69.9-43.7,64.4-70.7,138.4-78.7,216.5-1.7,16.3-2.5,32.7-2.5,49.3s.8,33,2.5,49.3c8,78.1,35,152.1,78.7,216.5,16.8,24.8,36.1,48.2,57.8,69.9,1.9,1.9,3.8,3.7,5.7,5.5,89,86.1,205.8,133.5,329.9,133.5s241-47.3,329.9-133.4c1.9-1.8,3.8-3.7,5.7-5.6,21.7-21.7,41-45,57.8-69.9l-69.6-58.4h0s0,0,0,0ZM344.2,823c-29.5-46.1-48.4-98-55.5-152.7-2.1-16.2-3.2-32.7-3.2-49.3s1.1-33.1,3.2-49.3c7.1-54.7,26-106.6,55.5-152.7,14.6-22.9,31.8-44.3,51.5-63.9,3.9-3.9,7.9-7.8,12-11.5,69.5-63.8,159-98.7,253.9-98.7s184.4,34.9,253.9,98.7l-51,42.8c-54.5-47.2-125.5-75.8-203-75.8s-148.5,28.6-203,75.8c-24.9,21.6-46.3,47-63.4,75.4l76.9,64.5,54.1,45.4,58.7,49.3,58.7,49.3,17.9,15.1,124.3,104.3,1.8,1.5c-35.2,26.2-78.9,41.7-126.1,41.7s-90.9-15.5-126.1-41.7c-26.6-19.8-48.4-45.6-63.4-75.5l-76.9,64.5-51,42.8h0ZM407.7,898.4l50.9-42.8h0c54.5,47.2,125.5,75.8,203,75.8s148-28.4,202.3-75.2l50.6,43.1c-69.4,63.2-158.5,97.8-252.9,97.8s-184.4-34.9-253.9-98.7h0Z" fill="#fff"/>
  </g>
</svg>