<?xml version="1.0" encoding="UTF-8"?>
<svg xmlns="http://www.w3.org/2000/svg" viewBox="0 0 1242 1242">
  <defs>
    <style>
      .cls-1 {
        fill: blue;
      }

      .cls-2 {
        fill: #fff;
      }
    </style>
  </defs>
  <g id="Colored_board" data-name="Colored board">
    <rect class="cls-1" x="2" width="1242" height="1242"/>
  </g>
  <g id="Export_board" data-name="Export board">
    <path class="cls-2" d="M985.48,828.34l-134.36-112.66-54.14-45.42-58.71-49.27-58.72-49.26-17.93-15.06-126.1-105.82c35.26-26.21,78.89-41.73,126.1-41.73s90.84,15.52,126.1,41.73h.02c26.6,19.77,48.41,45.59,63.39,75.44l76.87-64.5,51.01-42.79,76-63.77c-16.82-24.81-36.11-48.16-57.79-69.84v-.02c-.94-.92-1.87-1.86-2.82-2.78-.94-.94-1.89-1.86-2.84-2.76-88.96-86.12-205.8-133.46-329.93-133.46s-240.97,47.34-329.93,133.46c-.95.9-1.91,1.82-2.84,2.76-.95.92-1.89,1.86-2.82,2.78v.02c-21.68,21.68-40.97,45.03-57.79,69.84-43.73,64.42-70.73,138.4-78.73,216.5-1.68,16.26-2.51,32.7-2.51,49.26s.84,33.01,2.51,49.27c8,78.1,34.99,152.06,78.73,216.49,16.82,24.81,36.13,48.18,57.79,69.86,1.87,1.86,3.76,3.71,5.67,5.55,88.96,86.12,205.8,133.46,329.93,133.46s240.97-47.34,329.94-133.44c1.91-1.84,3.79-3.69,5.67-5.57,21.66-21.68,40.96-45.04,57.77-69.86l-69.56-58.36.04-.05ZM344.24,822.99c-29.49-46.13-48.41-98.04-55.52-152.72-2.12-16.21-3.19-32.65-3.19-49.27s1.07-33.06,3.19-49.26c7.11-54.68,26.03-106.61,55.52-152.74,14.62-22.86,31.81-44.29,51.45-63.93,3.92-3.92,7.92-7.75,11.99-11.46,69.51-63.77,159.04-98.69,253.94-98.69s184.43,34.93,253.94,98.69l-50.96,42.75c-54.47-47.18-125.45-75.75-202.99-75.75s-148.52,28.57-202.99,75.75c-24.91,21.58-46.34,47.03-63.39,75.44l76.87,64.5,54.14,45.44,58.71,49.26,58.72,49.27,17.93,15.06,124.33,104.32,1.77,1.51c-35.25,26.2-78.9,41.71-126.1,41.71s-90.86-15.52-126.12-41.73c-26.6-19.77-48.41-45.6-63.39-75.46l-76.87,64.5-51.01,42.79ZM407.67,898.39l50.94-42.76.02.02c54.47,47.18,125.45,75.75,202.99,75.75s147.96-28.36,202.34-75.21l50.56,43.13c-69.37,63.17-158.47,97.76-252.9,97.76s-184.43-34.93-253.94-98.69Z"/>
  </g>
</svg>